# xmcd
#
# Track frame offsets:
# 151
# 31669
# 63535
# 152364
# 201686
# 211686
#
# Disc length: 3473 seconds
#
# Revision: 0
# Processed by: cddbd v1.4PL0 Copyright (c) Steve Scherf et al.
# Submitted via: Audion 3.0.2 (http://www.panic.com/audion/)
#
DISCID=4a0d8f06
DTITLE=Jay Allison and Friends - The Life Stories Collection - Disc 2
DYEAR=1900
DGENRE=
TTITLE0=Artists: Rejections
TTITLE1=Trapeze
TTITLE2=Descended from the Holocaust
TTITLE3=Carmen's Grandmother
TTITLE4=Ghosts
TTITLE5=Cypress Knees
EXTD=
EXTT0=
EXTT1=
EXTT2=
EXTT3=
EXTT4=
EXTT5=
PLAYORDER=
